<?xml version="1.0" standalone="no"?>
<!DOCTYPE svg PUBLIC "-//W3C//DTD SVG 20010904//EN"
 "http://www.w3.org/TR/2001/REC-SVG-20010904/DTD/svg10.dtd">
<svg version="1.0" xmlns="http://www.w3.org/2000/svg"
 width="512.000000pt" height="512.000000pt" viewBox="0 0 512.000000 512.000000"
 preserveAspectRatio="xMidYMid meet">

<g transform="translate(0.000000,512.000000) scale(0.100000,-0.100000)"
fill="#000000" stroke="none">
<path d="M2330 5110 c-494 -48 -950 -230 -1350 -538 -195 -150 -448 -432 -594
-662 -63 -99 -186 -351 -230 -471 -49 -134 -102 -340 -128 -499 -31 -195 -31
-565 0 -760 45 -276 116 -498 237 -745 132 -269 269 -460 489 -681 221 -220
412 -357 681 -489 247 -121 469 -192 745 -237 195 -31 565 -31 760 0 159 26
365 79 499 128 120 44 372 167 471 230 321 204 620 503 824 824 63 99 186 351
230 471 264 721 183 1552 -215 2200 l-59 96 0 536 0 535 -26 31 c-32 38 -80
49 -123 27 -61 -32 -61 -35 -61 -464 l0 -389 -127 126 c-395 390 -874 628
-1438 716 -117 18 -463 27 -585 15z m534 -226 c486 -60 963 -291 1329 -643 63
-60 190 -205 250 -285 l37 -49 0 -811 0 -811 -268 -268 -267 -267 -70 71 c-85
86 -115 103 -164 94 -31 -6 -83 -54 -350 -318 -172 -172 -326 -330 -342 -351
-20 -27 -29 -51 -29 -78 0 -35 8 -47 81 -123 l82 -85 -82 -85 c-73 -77 -81
-88 -81 -124 0 -78 81 -132 146 -98 16 9 60 47 99 86 l69 71 81 -80 c83 -81
114 -97 162 -86 39 10 710 682 715 716 7 49 -12 85 -89 162 l-78 78 298 298
297 298 1 664 1 665 30 -65 c71 -151 140 -411 169 -630 18 -138 15 -431 -5
-575 -50 -353 -167 -672 -354 -965 -161 -253 -449 -541 -702 -702 -226 -144
-507 -262 -757 -317 -185 -41 -302 -53 -513 -53 -275 0 -467 29 -713 108 -371
120 -663 300 -942 579 -279 279 -459 571 -579 942 -79 246 -108 438 -108 713
0 275 29 467 108 713 120 371 300 663 579 942 226 226 452 381 727 499 399
170 793 224 1232 170z m901 -3744 l-245 -245 -137 138 -138 137 245 245 245
245 137 -137 138 -138 -245 -245z"/>
<path d="M2425 4473 c-442 -34 -821 -196 -1153 -493 -105 -93 -122 -133 -82
-197 22 -37 69 -54 113 -42 16 5 58 34 94 66 231 206 466 335 736 404 115 29
173 38 326 49 140 11 170 20 192 61 16 31 14 83 -6 112 -28 43 -77 52 -220 40z"/>
<path d="M2455 3620 c-466 -46 -842 -388 -940 -855 -22 -106 -22 -304 0 -410
91 -432 408 -749 840 -840 161 -34 386 -19 550 37 306 105 558 357 663 663 73
215 73 475 0 690 -89 261 -285 483 -533 607 -177 89 -384 127 -580 108z m362
-249 c107 -35 136 -49 218 -104 168 -113 281 -270 346 -477 20 -65 24 -96 24
-230 0 -165 -12 -226 -71 -357 -74 -168 -249 -343 -418 -418 -130 -58 -191
-70 -356 -70 -165 0 -226 12 -356 70 -169 75 -344 250 -418 418 -59 131 -71
192 -71 357 0 134 4 165 24 230 34 108 64 171 121 254 113 164 271 277 465
334 99 29 114 31 265 27 119 -3 146 -7 227 -34z"/>
<path d="M2472 2754 c-84 -43 -126 -116 -120 -208 4 -71 34 -123 95 -164 33
-23 48 -27 113 -27 65 0 80 4 113 27 22 14 51 43 65 65 23 33 27 48 27 113 0
65 -4 80 -27 113 -43 63 -92 91 -168 95 -46 2 -75 -2 -98 -14z"/>
</g>
</svg>
